<svg width="32" height="32" viewBox="0 0 32 32" fill="none" xmlns="http://www.w3.org/2000/svg">
  <path d="M29.8836 6.146L16.7418 28.3437c-.3074.5446-.9211.8237-1.5157.7026-.5955-.1212-1.0262-.6306-1.0262-1.2387V19.5h-6.532c-.5681 0-1.0979-.292-1.3846-.7771-.2866-.4852-.2855-1.0801.003-1.5639L15.158.6512c.3-.526.8578-.829 1.4494-.7612.592.0678 1.0819.4616 1.2492 1.0075L29.8828 6.146z" fill="#FFD666"/>
  <path d="M22.264 12.188c-.6678-1.109-2.1551-1.109-2.8229 0l-8.4568 14.062c-.6679 1.11.1669 2.5 1.4114 2.5h16.9137c1.2445 0 2.0793-1.39 1.4114-2.5l-8.457-14.062z" fill="#FFD666"/>
</svg>
